<?xml version="1.0" standalone="no"?>
<!DOCTYPE svg PUBLIC "-//W3C//DTD SVG 20010904//EN"
 "http://www.w3.org/TR/2001/REC-SVG-20010904/DTD/svg10.dtd">
<svg version="1.0" xmlns="http://www.w3.org/2000/svg"
 width="743.000000pt" height="743.000000pt" viewBox="0 0 743.000000 743.000000"
 preserveAspectRatio="xMidYMid meet">
<metadata>
Created by potrace 1.11, written by Peter Selinger 2001-2013
</metadata>
<g transform="translate(0.000000,743.000000) scale(0.100000,-0.100000)"
fill="#000000" stroke="none">
<path d="M3326 7397 c-10 -18 -38 -70 -63 -117 -25 -47 -54 -98 -63 -115 -10
-16 -32 -57 -50 -90 -18 -33 -41 -73 -50 -90 -9 -16 -32 -57 -50 -90 -18 -33
-43 -78 -55 -100 -12 -22 -40 -71 -60 -110 -21 -38 -60 -109 -86 -158 -27 -48
-49 -90 -49 -94 0 -3 -6 -14 -13 -22 -8 -9 -34 -54 -59 -101 -25 -47 -80 -148
-123 -225 -42 -77 -81 -149 -87 -160 -5 -11 -21 -41 -36 -67 -60 -104 -132
-239 -132 -248 0 -6 -4 -10 -10 -10 -5 0 -10 -4 -10 -9 0 -5 -26 -56 -58 -113
-54 -95 -101 -181 -173 -315 -16 -29 -38 -70 -51 -92 l-23 -39 25 -44 c13 -24
34 -61 47 -83 12 -22 29 -53 37 -70 8 -16 35 -66 61 -110 25 -44 62 -111 81
-150 20 -38 39 -72 43 -75 3 -3 18 -27 32 -55 27 -52 82 -155 116 -215 11 -19
39 -71 63 -115 24 -44 66 -120 93 -170 28 -49 68 -124 90 -165 22 -41 45 -82
51 -90 6 -8 20 -32 30 -53 l19 -37 731 0 c402 0 764 0 804 0 75 0 85 -7 55
-37 -17 -17 -68 -18 -806 -17 l-788 0 -139 -234 c-77 -129 -140 -238 -140
-243 0 -5 -4 -9 -10 -9 -5 0 -10 -5 -10 -10 0 -6 -11 -27 -24 -48 -23 -37
-203 -339 -236 -397 -9 -16 -26 -45 -38 -64 -12 -19 -18 -39 -15 -44 3 -6 2
-7 -4 -4 -5 3 -20 -13 -32 -36 -12 -23 -49 -86 -81 -140 l-58 -98 56 -92 c30
-51 60 -101 66 -112 42 -76 192 -321 198 -323 4 -2 8 -8 8 -14 0 -10 185 -327
221 -380 11 -15 19 -30 19 -32 0 -3 15 -29 33 -58 19 -29 37 -60 40 -68 4 -8
18 -33 32 -55 14 -22 34 -56 45 -75 11 -19 29 -48 40 -65 11 -16 24 -40 30
-53 5 -12 18 -35 28 -50 37 -54 56 -87 54 -94 -1 -5 2 -8 8 -8 5 0 10 -5 10
-10 0 -6 12 -29 27 -53 15 -23 33 -51 39 -62 6 -11 35 -60 64 -110 29 -49 58
-100 64 -112 6 -13 14 -23 19 -23 4 0 7 -4 7 -9 0 -12 63 -115 73 -119 4 -2 7
-8 7 -14 0 -18 124 -218 133 -215 5 1 23 29 40 62 18 33 34 62 37 65 11 10 80
132 80 141 0 5 4 9 9 9 5 0 13 9 16 21 4 12 18 37 31 56 13 20 21 40 17 47 -3
6 -3 8 2 4 6 -6 85 117 159 247 57 99 109 186 115 189 4 3 17 -18 30 -45 13
-27 33 -59 45 -72 12 -12 21 -27 21 -32 0 -6 11 -28 23 -50 62 -109 82 -140
91 -138 6 2 8 -4 4 -12 -3 -9 1 -23 9 -33 9 -9 17 -22 19 -27 2 -6 37 -68 78
-138 69 -119 75 -126 88 -107 8 11 11 26 7 33 -4 6 -4 9 1 5 7 -6 115 160 115
177 0 2 15 28 33 57 19 29 47 78 64 108 16 30 69 121 116 202 48 81 87 150 87
152 0 2 25 46 56 97 31 51 60 103 65 114 5 11 23 42 39 68 17 27 27 53 24 59
-4 6 -3 8 3 5 5 -4 16 6 24 21 8 15 32 56 53 92 21 35 49 83 61 105 46 85 79
141 97 167 11 16 16 28 11 28 -4 0 -3 4 3 8 6 4 62 97 124 207 63 110 118 202
122 203 4 2 8 8 8 13 0 6 22 48 50 95 27 47 50 89 50 94 0 6 5 10 10 10 6 0
10 5 10 10 0 6 11 28 25 51 14 22 23 45 19 52 -4 7 -3 9 1 4 8 -6 83 111 88
137 1 6 10 19 20 30 9 11 17 26 17 33 0 7 4 13 8 13 4 0 18 19 30 43 12 23 36
67 54 98 18 31 46 78 61 105 15 26 25 54 23 61 -3 7 0 12 6 10 5 -1 18 12 28
28 19 33 50 87 79 139 11 19 32 53 46 76 14 22 23 46 19 53 -4 7 -4 9 1 5 7
-7 124 181 128 206 1 6 5 13 8 16 3 3 24 36 47 74 41 69 41 69 24 100 -9 17
-20 33 -24 34 -5 2 -8 9 -8 16 0 7 -14 33 -30 60 -17 26 -47 77 -67 114 -20
37 -45 78 -55 91 -10 13 -18 30 -18 38 0 7 -7 16 -15 19 -8 4 -13 9 -10 13 2
4 -7 24 -20 44 -14 20 -25 38 -25 41 0 7 -107 188 -120 204 -6 6 -8 12 -4 12
4 0 0 8 -8 18 -9 9 -17 22 -19 27 -6 16 -112 199 -118 205 -3 3 -17 26 -30 53
-13 26 -28 47 -33 47 -5 0 -7 4 -4 9 3 5 -1 14 -9 21 -8 7 -13 16 -10 20 3 4
-2 13 -10 20 -8 7 -15 18 -15 25 0 8 -3 15 -7 17 -8 3 -28 38 -61 103 -9 17
-18 32 -21 35 -3 3 -13 19 -22 35 -13 25 -109 194 -138 245 -5 8 -14 14 -20
13 -6 -2 -8 4 -4 12 3 9 -1 23 -9 33 -8 9 -28 42 -44 72 -30 57 -66 116 -84
138 -6 6 -8 12 -4 12 4 0 1 8 -7 18 -8 9 -25 37 -39 62 -13 25 -41 74 -62 109
-21 34 -38 67 -38 72 0 5 -3 9 -8 9 -4 0 -13 15 -21 33 -8 17 -17 34 -20 37
-3 3 -13 19 -22 35 -19 37 -19 37 -125 220 -48 83 -94 164 -102 180 -8 17 -21
37 -27 45 -7 8 -26 40 -42 70 -37 68 -68 121 -83 138 -6 6 -9 12 -6 12 3 0
-24 49 -59 109 -36 60 -65 114 -65 118 0 5 -8 18 -17 29 -10 10 -25 33 -33 49
-8 17 -17 32 -20 35 -3 3 -10 14 -16 25 -50 92 -79 143 -89 158 -10 15 -23 -2
-99 -133 -48 -83 -84 -156 -80 -162 4 -7 3 -8 -4 -4 -14 8 -35 -30 -26 -47 4
-6 4 -9 -1 -5 -10 9 -20 -5 -68 -93 -20 -37 -33 -70 -29 -74 4 -5 2 -5 -5 -1
-7 4 -14 -3 -19 -16 -3 -12 -11 -26 -16 -32 -5 -6 -14 -19 -21 -29 -11 -15
-15 -12 -37 30 -14 27 -51 95 -82 152 -32 57 -58 107 -58 111 0 5 -3 10 -7 12
-5 2 -26 37 -47 78 -22 41 -44 78 -50 82 -6 4 -7 8 -2 8 5 0 4 6 -1 13 -10 12
-39 63 -103 182 -32 59 -152 278 -154 282 -1 1 -10 -13 -20 -30z"/>
<path d="M1919 4948 c-7 -12 -64 -115 -127 -228 -63 -113 -168 -299 -232 -415
-64 -115 -169 -302 -232 -415 -63 -113 -120 -215 -127 -227 l-12 -23 741 0
c407 0 740 4 740 9 0 4 -123 228 -273 497 -151 269 -286 512 -302 539 -53 96
-157 280 -160 283 -2 2 -9 -7 -16 -20z"/>
<path d="M1200 3595 c0 -2 84 -154 187 -337 102 -183 199 -355 214 -383 207
-374 336 -599 343 -599 5 -1 13 6 17 14 16 26 81 143 112 200 17 30 90 161
162 290 73 129 148 264 168 300 19 36 91 164 160 285 68 121 122 223 120 228
-4 8 -1483 10 -1483 2z"/>
</g>
</svg>
